%TF.GenerationSoftware,KiCad,Pcbnew,10.0.2*%
%TF.CreationDate,2026-07-08T15:35:40-07:00*%
%TF.ProjectId,Business card PCB,42757369-6e65-4737-9320-636172642050,rev?*%
%TF.SameCoordinates,Original*%
%TF.FileFunction,Copper,L1,Top*%
%TF.FilePolarity,Positive*%
%FSLAX46Y46*%
G04 Gerber Fmt 4.6, Leading zero omitted, Abs format (unit mm)*
G04 Created by KiCad (PCBNEW 10.0.2) date 2026-07-08 15:35:40*
%MOMM*%
%LPD*%
G01*
G04 APERTURE LIST*
%ADD10C,0.300000*%
%TA.AperFunction,NonConductor*%
%ADD11C,0.300000*%
%TD*%
%TA.AperFunction,NonConductor*%
%ADD12C,0.200000*%
%TD*%
%TA.AperFunction,ComponentPad*%
%ADD13R,2.700000X2.700000*%
%TD*%
%TA.AperFunction,ComponentPad*%
%ADD14C,1.600000*%
%TD*%
%TA.AperFunction,ComponentPad*%
%ADD15R,1.800000X1.800000*%
%TD*%
%TA.AperFunction,ComponentPad*%
%ADD16C,1.800000*%
%TD*%
%TA.AperFunction,ComponentPad*%
%ADD17C,2.400000*%
%TD*%
%TA.AperFunction,ComponentPad*%
%ADD18C,2.000000*%
%TD*%
%TA.AperFunction,Conductor*%
%ADD19C,0.200000*%
%TD*%
G04 APERTURE END LIST*
D10*
D11*
X189697368Y-128729400D02*
X189554510Y-128800828D01*
X189554510Y-128800828D02*
X189268796Y-128800828D01*
X189268796Y-128800828D02*
X189125939Y-128729400D01*
X189125939Y-128729400D02*
X189054510Y-128657971D01*
X189054510Y-128657971D02*
X188983082Y-128515114D01*
X188983082Y-128515114D02*
X188983082Y-128086542D01*
X188983082Y-128086542D02*
X189054510Y-127943685D01*
X189054510Y-127943685D02*
X189125939Y-127872257D01*
X189125939Y-127872257D02*
X189268796Y-127800828D01*
X189268796Y-127800828D02*
X189554510Y-127800828D01*
X189554510Y-127800828D02*
X189697368Y-127872257D01*
X190983082Y-128800828D02*
X190983082Y-128015114D01*
X190983082Y-128015114D02*
X190911653Y-127872257D01*
X190911653Y-127872257D02*
X190768796Y-127800828D01*
X190768796Y-127800828D02*
X190483082Y-127800828D01*
X190483082Y-127800828D02*
X190340224Y-127872257D01*
X190983082Y-128729400D02*
X190840224Y-128800828D01*
X190840224Y-128800828D02*
X190483082Y-128800828D01*
X190483082Y-128800828D02*
X190340224Y-128729400D01*
X190340224Y-128729400D02*
X190268796Y-128586542D01*
X190268796Y-128586542D02*
X190268796Y-128443685D01*
X190268796Y-128443685D02*
X190340224Y-128300828D01*
X190340224Y-128300828D02*
X190483082Y-128229400D01*
X190483082Y-128229400D02*
X190840224Y-128229400D01*
X190840224Y-128229400D02*
X190983082Y-128157971D01*
X191697367Y-128800828D02*
X191697367Y-127800828D01*
X191697367Y-127943685D02*
X191768796Y-127872257D01*
X191768796Y-127872257D02*
X191911653Y-127800828D01*
X191911653Y-127800828D02*
X192125939Y-127800828D01*
X192125939Y-127800828D02*
X192268796Y-127872257D01*
X192268796Y-127872257D02*
X192340225Y-128015114D01*
X192340225Y-128015114D02*
X192340225Y-128800828D01*
X192340225Y-128015114D02*
X192411653Y-127872257D01*
X192411653Y-127872257D02*
X192554510Y-127800828D01*
X192554510Y-127800828D02*
X192768796Y-127800828D01*
X192768796Y-127800828D02*
X192911653Y-127872257D01*
X192911653Y-127872257D02*
X192983082Y-128015114D01*
X192983082Y-128015114D02*
X192983082Y-128800828D01*
X194340225Y-128800828D02*
X194340225Y-127300828D01*
X194340225Y-128729400D02*
X194197367Y-128800828D01*
X194197367Y-128800828D02*
X193911653Y-128800828D01*
X193911653Y-128800828D02*
X193768796Y-128729400D01*
X193768796Y-128729400D02*
X193697367Y-128657971D01*
X193697367Y-128657971D02*
X193625939Y-128515114D01*
X193625939Y-128515114D02*
X193625939Y-128086542D01*
X193625939Y-128086542D02*
X193697367Y-127943685D01*
X193697367Y-127943685D02*
X193768796Y-127872257D01*
X193768796Y-127872257D02*
X193911653Y-127800828D01*
X193911653Y-127800828D02*
X194197367Y-127800828D01*
X194197367Y-127800828D02*
X194340225Y-127872257D01*
X195625939Y-128729400D02*
X195483082Y-128800828D01*
X195483082Y-128800828D02*
X195197368Y-128800828D01*
X195197368Y-128800828D02*
X195054510Y-128729400D01*
X195054510Y-128729400D02*
X194983082Y-128586542D01*
X194983082Y-128586542D02*
X194983082Y-128015114D01*
X194983082Y-128015114D02*
X195054510Y-127872257D01*
X195054510Y-127872257D02*
X195197368Y-127800828D01*
X195197368Y-127800828D02*
X195483082Y-127800828D01*
X195483082Y-127800828D02*
X195625939Y-127872257D01*
X195625939Y-127872257D02*
X195697368Y-128015114D01*
X195697368Y-128015114D02*
X195697368Y-128157971D01*
X195697368Y-128157971D02*
X194983082Y-128300828D01*
X196340224Y-127800828D02*
X196340224Y-128800828D01*
X196340224Y-127943685D02*
X196411653Y-127872257D01*
X196411653Y-127872257D02*
X196554510Y-127800828D01*
X196554510Y-127800828D02*
X196768796Y-127800828D01*
X196768796Y-127800828D02*
X196911653Y-127872257D01*
X196911653Y-127872257D02*
X196983082Y-128015114D01*
X196983082Y-128015114D02*
X196983082Y-128800828D01*
X198340225Y-128729400D02*
X198197367Y-128800828D01*
X198197367Y-128800828D02*
X197911653Y-128800828D01*
X197911653Y-128800828D02*
X197768796Y-128729400D01*
X197768796Y-128729400D02*
X197697367Y-128657971D01*
X197697367Y-128657971D02*
X197625939Y-128515114D01*
X197625939Y-128515114D02*
X197625939Y-128086542D01*
X197625939Y-128086542D02*
X197697367Y-127943685D01*
X197697367Y-127943685D02*
X197768796Y-127872257D01*
X197768796Y-127872257D02*
X197911653Y-127800828D01*
X197911653Y-127800828D02*
X198197367Y-127800828D01*
X198197367Y-127800828D02*
X198340225Y-127872257D01*
X199197367Y-128800828D02*
X199054510Y-128729400D01*
X199054510Y-128729400D02*
X198983081Y-128657971D01*
X198983081Y-128657971D02*
X198911653Y-128515114D01*
X198911653Y-128515114D02*
X198911653Y-128086542D01*
X198911653Y-128086542D02*
X198983081Y-127943685D01*
X198983081Y-127943685D02*
X199054510Y-127872257D01*
X199054510Y-127872257D02*
X199197367Y-127800828D01*
X199197367Y-127800828D02*
X199411653Y-127800828D01*
X199411653Y-127800828D02*
X199554510Y-127872257D01*
X199554510Y-127872257D02*
X199625939Y-127943685D01*
X199625939Y-127943685D02*
X199697367Y-128086542D01*
X199697367Y-128086542D02*
X199697367Y-128515114D01*
X199697367Y-128515114D02*
X199625939Y-128657971D01*
X199625939Y-128657971D02*
X199554510Y-128729400D01*
X199554510Y-128729400D02*
X199411653Y-128800828D01*
X199411653Y-128800828D02*
X199197367Y-128800828D01*
X200340224Y-127800828D02*
X200340224Y-129300828D01*
X200340224Y-127872257D02*
X200483082Y-127800828D01*
X200483082Y-127800828D02*
X200768796Y-127800828D01*
X200768796Y-127800828D02*
X200911653Y-127872257D01*
X200911653Y-127872257D02*
X200983082Y-127943685D01*
X200983082Y-127943685D02*
X201054510Y-128086542D01*
X201054510Y-128086542D02*
X201054510Y-128515114D01*
X201054510Y-128515114D02*
X200983082Y-128657971D01*
X200983082Y-128657971D02*
X200911653Y-128729400D01*
X200911653Y-128729400D02*
X200768796Y-128800828D01*
X200768796Y-128800828D02*
X200483082Y-128800828D01*
X200483082Y-128800828D02*
X200340224Y-128729400D01*
X202268796Y-128729400D02*
X202125939Y-128800828D01*
X202125939Y-128800828D02*
X201840225Y-128800828D01*
X201840225Y-128800828D02*
X201697367Y-128729400D01*
X201697367Y-128729400D02*
X201625939Y-128586542D01*
X201625939Y-128586542D02*
X201625939Y-128015114D01*
X201625939Y-128015114D02*
X201697367Y-127872257D01*
X201697367Y-127872257D02*
X201840225Y-127800828D01*
X201840225Y-127800828D02*
X202125939Y-127800828D01*
X202125939Y-127800828D02*
X202268796Y-127872257D01*
X202268796Y-127872257D02*
X202340225Y-128015114D01*
X202340225Y-128015114D02*
X202340225Y-128157971D01*
X202340225Y-128157971D02*
X201625939Y-128300828D01*
X203197367Y-128800828D02*
X203054510Y-128729400D01*
X203054510Y-128729400D02*
X202983081Y-128586542D01*
X202983081Y-128586542D02*
X202983081Y-127300828D01*
X204411653Y-128800828D02*
X204411653Y-128015114D01*
X204411653Y-128015114D02*
X204340224Y-127872257D01*
X204340224Y-127872257D02*
X204197367Y-127800828D01*
X204197367Y-127800828D02*
X203911653Y-127800828D01*
X203911653Y-127800828D02*
X203768795Y-127872257D01*
X204411653Y-128729400D02*
X204268795Y-128800828D01*
X204268795Y-128800828D02*
X203911653Y-128800828D01*
X203911653Y-128800828D02*
X203768795Y-128729400D01*
X203768795Y-128729400D02*
X203697367Y-128586542D01*
X203697367Y-128586542D02*
X203697367Y-128443685D01*
X203697367Y-128443685D02*
X203768795Y-128300828D01*
X203768795Y-128300828D02*
X203911653Y-128229400D01*
X203911653Y-128229400D02*
X204268795Y-128229400D01*
X204268795Y-128229400D02*
X204411653Y-128157971D01*
X205125938Y-127800828D02*
X205125938Y-128800828D01*
X205125938Y-127943685D02*
X205197367Y-127872257D01*
X205197367Y-127872257D02*
X205340224Y-127800828D01*
X205340224Y-127800828D02*
X205554510Y-127800828D01*
X205554510Y-127800828D02*
X205697367Y-127872257D01*
X205697367Y-127872257D02*
X205768796Y-128015114D01*
X205768796Y-128015114D02*
X205768796Y-128800828D01*
X207125939Y-128800828D02*
X207125939Y-127300828D01*
X207125939Y-128729400D02*
X206983081Y-128800828D01*
X206983081Y-128800828D02*
X206697367Y-128800828D01*
X206697367Y-128800828D02*
X206554510Y-128729400D01*
X206554510Y-128729400D02*
X206483081Y-128657971D01*
X206483081Y-128657971D02*
X206411653Y-128515114D01*
X206411653Y-128515114D02*
X206411653Y-128086542D01*
X206411653Y-128086542D02*
X206483081Y-127943685D01*
X206483081Y-127943685D02*
X206554510Y-127872257D01*
X206554510Y-127872257D02*
X206697367Y-127800828D01*
X206697367Y-127800828D02*
X206983081Y-127800828D01*
X206983081Y-127800828D02*
X207125939Y-127872257D01*
X208483082Y-127300828D02*
X208197367Y-127300828D01*
X208197367Y-127300828D02*
X208054510Y-127372257D01*
X208054510Y-127372257D02*
X207983082Y-127443685D01*
X207983082Y-127443685D02*
X207840224Y-127657971D01*
X207840224Y-127657971D02*
X207768796Y-127943685D01*
X207768796Y-127943685D02*
X207768796Y-128515114D01*
X207768796Y-128515114D02*
X207840224Y-128657971D01*
X207840224Y-128657971D02*
X207911653Y-128729400D01*
X207911653Y-128729400D02*
X208054510Y-128800828D01*
X208054510Y-128800828D02*
X208340224Y-128800828D01*
X208340224Y-128800828D02*
X208483082Y-128729400D01*
X208483082Y-128729400D02*
X208554510Y-128657971D01*
X208554510Y-128657971D02*
X208625939Y-128515114D01*
X208625939Y-128515114D02*
X208625939Y-128157971D01*
X208625939Y-128157971D02*
X208554510Y-128015114D01*
X208554510Y-128015114D02*
X208483082Y-127943685D01*
X208483082Y-127943685D02*
X208340224Y-127872257D01*
X208340224Y-127872257D02*
X208054510Y-127872257D01*
X208054510Y-127872257D02*
X207911653Y-127943685D01*
X207911653Y-127943685D02*
X207840224Y-128015114D01*
X207840224Y-128015114D02*
X207768796Y-128157971D01*
X209125938Y-127300828D02*
X210125938Y-127300828D01*
X210125938Y-127300828D02*
X209483081Y-128800828D01*
X211625938Y-128086542D02*
X211554509Y-128015114D01*
X211554509Y-128015114D02*
X211411652Y-127943685D01*
X211411652Y-127943685D02*
X211268795Y-127943685D01*
X211268795Y-127943685D02*
X211125938Y-128015114D01*
X211125938Y-128015114D02*
X211054509Y-128086542D01*
X211054509Y-128086542D02*
X210983081Y-128229400D01*
X210983081Y-128229400D02*
X210983081Y-128372257D01*
X210983081Y-128372257D02*
X211054509Y-128515114D01*
X211054509Y-128515114D02*
X211125938Y-128586542D01*
X211125938Y-128586542D02*
X211268795Y-128657971D01*
X211268795Y-128657971D02*
X211411652Y-128657971D01*
X211411652Y-128657971D02*
X211554509Y-128586542D01*
X211554509Y-128586542D02*
X211625938Y-128515114D01*
X211625938Y-127943685D02*
X211625938Y-128515114D01*
X211625938Y-128515114D02*
X211697366Y-128586542D01*
X211697366Y-128586542D02*
X211768795Y-128586542D01*
X211768795Y-128586542D02*
X211911652Y-128515114D01*
X211911652Y-128515114D02*
X211983081Y-128372257D01*
X211983081Y-128372257D02*
X211983081Y-128015114D01*
X211983081Y-128015114D02*
X211840224Y-127800828D01*
X211840224Y-127800828D02*
X211625938Y-127657971D01*
X211625938Y-127657971D02*
X211340224Y-127586542D01*
X211340224Y-127586542D02*
X211054509Y-127657971D01*
X211054509Y-127657971D02*
X210840224Y-127800828D01*
X210840224Y-127800828D02*
X210697366Y-128015114D01*
X210697366Y-128015114D02*
X210625938Y-128300828D01*
X210625938Y-128300828D02*
X210697366Y-128586542D01*
X210697366Y-128586542D02*
X210840224Y-128800828D01*
X210840224Y-128800828D02*
X211054509Y-128943685D01*
X211054509Y-128943685D02*
X211340224Y-129015114D01*
X211340224Y-129015114D02*
X211625938Y-128943685D01*
X211625938Y-128943685D02*
X211840224Y-128800828D01*
X213268795Y-127800828D02*
X213268795Y-129015114D01*
X213268795Y-129015114D02*
X213197366Y-129157971D01*
X213197366Y-129157971D02*
X213125937Y-129229400D01*
X213125937Y-129229400D02*
X212983080Y-129300828D01*
X212983080Y-129300828D02*
X212768795Y-129300828D01*
X212768795Y-129300828D02*
X212625937Y-129229400D01*
X213268795Y-128729400D02*
X213125937Y-128800828D01*
X213125937Y-128800828D02*
X212840223Y-128800828D01*
X212840223Y-128800828D02*
X212697366Y-128729400D01*
X212697366Y-128729400D02*
X212625937Y-128657971D01*
X212625937Y-128657971D02*
X212554509Y-128515114D01*
X212554509Y-128515114D02*
X212554509Y-128086542D01*
X212554509Y-128086542D02*
X212625937Y-127943685D01*
X212625937Y-127943685D02*
X212697366Y-127872257D01*
X212697366Y-127872257D02*
X212840223Y-127800828D01*
X212840223Y-127800828D02*
X213125937Y-127800828D01*
X213125937Y-127800828D02*
X213268795Y-127872257D01*
X213983080Y-128800828D02*
X213983080Y-127800828D01*
X213983080Y-127943685D02*
X214054509Y-127872257D01*
X214054509Y-127872257D02*
X214197366Y-127800828D01*
X214197366Y-127800828D02*
X214411652Y-127800828D01*
X214411652Y-127800828D02*
X214554509Y-127872257D01*
X214554509Y-127872257D02*
X214625938Y-128015114D01*
X214625938Y-128015114D02*
X214625938Y-128800828D01*
X214625938Y-128015114D02*
X214697366Y-127872257D01*
X214697366Y-127872257D02*
X214840223Y-127800828D01*
X214840223Y-127800828D02*
X215054509Y-127800828D01*
X215054509Y-127800828D02*
X215197366Y-127872257D01*
X215197366Y-127872257D02*
X215268795Y-128015114D01*
X215268795Y-128015114D02*
X215268795Y-128800828D01*
X216625938Y-128800828D02*
X216625938Y-128015114D01*
X216625938Y-128015114D02*
X216554509Y-127872257D01*
X216554509Y-127872257D02*
X216411652Y-127800828D01*
X216411652Y-127800828D02*
X216125938Y-127800828D01*
X216125938Y-127800828D02*
X215983080Y-127872257D01*
X216625938Y-128729400D02*
X216483080Y-128800828D01*
X216483080Y-128800828D02*
X216125938Y-128800828D01*
X216125938Y-128800828D02*
X215983080Y-128729400D01*
X215983080Y-128729400D02*
X215911652Y-128586542D01*
X215911652Y-128586542D02*
X215911652Y-128443685D01*
X215911652Y-128443685D02*
X215983080Y-128300828D01*
X215983080Y-128300828D02*
X216125938Y-128229400D01*
X216125938Y-128229400D02*
X216483080Y-128229400D01*
X216483080Y-128229400D02*
X216625938Y-128157971D01*
X217340223Y-128800828D02*
X217340223Y-127800828D01*
X217340223Y-127300828D02*
X217268795Y-127372257D01*
X217268795Y-127372257D02*
X217340223Y-127443685D01*
X217340223Y-127443685D02*
X217411652Y-127372257D01*
X217411652Y-127372257D02*
X217340223Y-127300828D01*
X217340223Y-127300828D02*
X217340223Y-127443685D01*
X218268795Y-128800828D02*
X218125938Y-128729400D01*
X218125938Y-128729400D02*
X218054509Y-128586542D01*
X218054509Y-128586542D02*
X218054509Y-127300828D01*
X218840223Y-128657971D02*
X218911652Y-128729400D01*
X218911652Y-128729400D02*
X218840223Y-128800828D01*
X218840223Y-128800828D02*
X218768795Y-128729400D01*
X218768795Y-128729400D02*
X218840223Y-128657971D01*
X218840223Y-128657971D02*
X218840223Y-128800828D01*
X220197367Y-128729400D02*
X220054509Y-128800828D01*
X220054509Y-128800828D02*
X219768795Y-128800828D01*
X219768795Y-128800828D02*
X219625938Y-128729400D01*
X219625938Y-128729400D02*
X219554509Y-128657971D01*
X219554509Y-128657971D02*
X219483081Y-128515114D01*
X219483081Y-128515114D02*
X219483081Y-128086542D01*
X219483081Y-128086542D02*
X219554509Y-127943685D01*
X219554509Y-127943685D02*
X219625938Y-127872257D01*
X219625938Y-127872257D02*
X219768795Y-127800828D01*
X219768795Y-127800828D02*
X220054509Y-127800828D01*
X220054509Y-127800828D02*
X220197367Y-127872257D01*
X221054509Y-128800828D02*
X220911652Y-128729400D01*
X220911652Y-128729400D02*
X220840223Y-128657971D01*
X220840223Y-128657971D02*
X220768795Y-128515114D01*
X220768795Y-128515114D02*
X220768795Y-128086542D01*
X220768795Y-128086542D02*
X220840223Y-127943685D01*
X220840223Y-127943685D02*
X220911652Y-127872257D01*
X220911652Y-127872257D02*
X221054509Y-127800828D01*
X221054509Y-127800828D02*
X221268795Y-127800828D01*
X221268795Y-127800828D02*
X221411652Y-127872257D01*
X221411652Y-127872257D02*
X221483081Y-127943685D01*
X221483081Y-127943685D02*
X221554509Y-128086542D01*
X221554509Y-128086542D02*
X221554509Y-128515114D01*
X221554509Y-128515114D02*
X221483081Y-128657971D01*
X221483081Y-128657971D02*
X221411652Y-128729400D01*
X221411652Y-128729400D02*
X221268795Y-128800828D01*
X221268795Y-128800828D02*
X221054509Y-128800828D01*
X222197366Y-128800828D02*
X222197366Y-127800828D01*
X222197366Y-127943685D02*
X222268795Y-127872257D01*
X222268795Y-127872257D02*
X222411652Y-127800828D01*
X222411652Y-127800828D02*
X222625938Y-127800828D01*
X222625938Y-127800828D02*
X222768795Y-127872257D01*
X222768795Y-127872257D02*
X222840224Y-128015114D01*
X222840224Y-128015114D02*
X222840224Y-128800828D01*
X222840224Y-128015114D02*
X222911652Y-127872257D01*
X222911652Y-127872257D02*
X223054509Y-127800828D01*
X223054509Y-127800828D02*
X223268795Y-127800828D01*
X223268795Y-127800828D02*
X223411652Y-127872257D01*
X223411652Y-127872257D02*
X223483081Y-128015114D01*
X223483081Y-128015114D02*
X223483081Y-128800828D01*
D12*
X140000000Y-75000000D02*
X140000000Y-130000000D01*
X140000000Y-130000000D02*
X225000000Y-130000000D01*
X225000000Y-75000000D02*
X140000000Y-75000000D01*
X225000000Y-130000000D02*
X225000000Y-75000000D01*
D10*
D11*
X201411653Y-123743055D02*
X201340225Y-123814484D01*
X201340225Y-123814484D02*
X201125939Y-123885912D01*
X201125939Y-123885912D02*
X200983082Y-123885912D01*
X200983082Y-123885912D02*
X200768796Y-123814484D01*
X200768796Y-123814484D02*
X200625939Y-123671626D01*
X200625939Y-123671626D02*
X200554510Y-123528769D01*
X200554510Y-123528769D02*
X200483082Y-123243055D01*
X200483082Y-123243055D02*
X200483082Y-123028769D01*
X200483082Y-123028769D02*
X200554510Y-122743055D01*
X200554510Y-122743055D02*
X200625939Y-122600198D01*
X200625939Y-122600198D02*
X200768796Y-122457341D01*
X200768796Y-122457341D02*
X200983082Y-122385912D01*
X200983082Y-122385912D02*
X201125939Y-122385912D01*
X201125939Y-122385912D02*
X201340225Y-122457341D01*
X201340225Y-122457341D02*
X201411653Y-122528769D01*
X202697368Y-123885912D02*
X202697368Y-123100198D01*
X202697368Y-123100198D02*
X202625939Y-122957341D01*
X202625939Y-122957341D02*
X202483082Y-122885912D01*
X202483082Y-122885912D02*
X202197368Y-122885912D01*
X202197368Y-122885912D02*
X202054510Y-122957341D01*
X202697368Y-123814484D02*
X202554510Y-123885912D01*
X202554510Y-123885912D02*
X202197368Y-123885912D01*
X202197368Y-123885912D02*
X202054510Y-123814484D01*
X202054510Y-123814484D02*
X201983082Y-123671626D01*
X201983082Y-123671626D02*
X201983082Y-123528769D01*
X201983082Y-123528769D02*
X202054510Y-123385912D01*
X202054510Y-123385912D02*
X202197368Y-123314484D01*
X202197368Y-123314484D02*
X202554510Y-123314484D01*
X202554510Y-123314484D02*
X202697368Y-123243055D01*
X203411653Y-123885912D02*
X203411653Y-122885912D01*
X203411653Y-123028769D02*
X203483082Y-122957341D01*
X203483082Y-122957341D02*
X203625939Y-122885912D01*
X203625939Y-122885912D02*
X203840225Y-122885912D01*
X203840225Y-122885912D02*
X203983082Y-122957341D01*
X203983082Y-122957341D02*
X204054511Y-123100198D01*
X204054511Y-123100198D02*
X204054511Y-123885912D01*
X204054511Y-123100198D02*
X204125939Y-122957341D01*
X204125939Y-122957341D02*
X204268796Y-122885912D01*
X204268796Y-122885912D02*
X204483082Y-122885912D01*
X204483082Y-122885912D02*
X204625939Y-122957341D01*
X204625939Y-122957341D02*
X204697368Y-123100198D01*
X204697368Y-123100198D02*
X204697368Y-123885912D01*
X206054511Y-123885912D02*
X206054511Y-122385912D01*
X206054511Y-123814484D02*
X205911653Y-123885912D01*
X205911653Y-123885912D02*
X205625939Y-123885912D01*
X205625939Y-123885912D02*
X205483082Y-123814484D01*
X205483082Y-123814484D02*
X205411653Y-123743055D01*
X205411653Y-123743055D02*
X205340225Y-123600198D01*
X205340225Y-123600198D02*
X205340225Y-123171626D01*
X205340225Y-123171626D02*
X205411653Y-123028769D01*
X205411653Y-123028769D02*
X205483082Y-122957341D01*
X205483082Y-122957341D02*
X205625939Y-122885912D01*
X205625939Y-122885912D02*
X205911653Y-122885912D01*
X205911653Y-122885912D02*
X206054511Y-122957341D01*
X207340225Y-123814484D02*
X207197368Y-123885912D01*
X207197368Y-123885912D02*
X206911654Y-123885912D01*
X206911654Y-123885912D02*
X206768796Y-123814484D01*
X206768796Y-123814484D02*
X206697368Y-123671626D01*
X206697368Y-123671626D02*
X206697368Y-123100198D01*
X206697368Y-123100198D02*
X206768796Y-122957341D01*
X206768796Y-122957341D02*
X206911654Y-122885912D01*
X206911654Y-122885912D02*
X207197368Y-122885912D01*
X207197368Y-122885912D02*
X207340225Y-122957341D01*
X207340225Y-122957341D02*
X207411654Y-123100198D01*
X207411654Y-123100198D02*
X207411654Y-123243055D01*
X207411654Y-123243055D02*
X206697368Y-123385912D01*
X208054510Y-122885912D02*
X208054510Y-123885912D01*
X208054510Y-123028769D02*
X208125939Y-122957341D01*
X208125939Y-122957341D02*
X208268796Y-122885912D01*
X208268796Y-122885912D02*
X208483082Y-122885912D01*
X208483082Y-122885912D02*
X208625939Y-122957341D01*
X208625939Y-122957341D02*
X208697368Y-123100198D01*
X208697368Y-123100198D02*
X208697368Y-123885912D01*
X211411653Y-123743055D02*
X211340225Y-123814484D01*
X211340225Y-123814484D02*
X211125939Y-123885912D01*
X211125939Y-123885912D02*
X210983082Y-123885912D01*
X210983082Y-123885912D02*
X210768796Y-123814484D01*
X210768796Y-123814484D02*
X210625939Y-123671626D01*
X210625939Y-123671626D02*
X210554510Y-123528769D01*
X210554510Y-123528769D02*
X210483082Y-123243055D01*
X210483082Y-123243055D02*
X210483082Y-123028769D01*
X210483082Y-123028769D02*
X210554510Y-122743055D01*
X210554510Y-122743055D02*
X210625939Y-122600198D01*
X210625939Y-122600198D02*
X210768796Y-122457341D01*
X210768796Y-122457341D02*
X210983082Y-122385912D01*
X210983082Y-122385912D02*
X211125939Y-122385912D01*
X211125939Y-122385912D02*
X211340225Y-122457341D01*
X211340225Y-122457341D02*
X211411653Y-122528769D01*
X212268796Y-123885912D02*
X212125939Y-123814484D01*
X212125939Y-123814484D02*
X212054510Y-123743055D01*
X212054510Y-123743055D02*
X211983082Y-123600198D01*
X211983082Y-123600198D02*
X211983082Y-123171626D01*
X211983082Y-123171626D02*
X212054510Y-123028769D01*
X212054510Y-123028769D02*
X212125939Y-122957341D01*
X212125939Y-122957341D02*
X212268796Y-122885912D01*
X212268796Y-122885912D02*
X212483082Y-122885912D01*
X212483082Y-122885912D02*
X212625939Y-122957341D01*
X212625939Y-122957341D02*
X212697368Y-123028769D01*
X212697368Y-123028769D02*
X212768796Y-123171626D01*
X212768796Y-123171626D02*
X212768796Y-123600198D01*
X212768796Y-123600198D02*
X212697368Y-123743055D01*
X212697368Y-123743055D02*
X212625939Y-123814484D01*
X212625939Y-123814484D02*
X212483082Y-123885912D01*
X212483082Y-123885912D02*
X212268796Y-123885912D01*
X213411653Y-122885912D02*
X213411653Y-124385912D01*
X213411653Y-122957341D02*
X213554511Y-122885912D01*
X213554511Y-122885912D02*
X213840225Y-122885912D01*
X213840225Y-122885912D02*
X213983082Y-122957341D01*
X213983082Y-122957341D02*
X214054511Y-123028769D01*
X214054511Y-123028769D02*
X214125939Y-123171626D01*
X214125939Y-123171626D02*
X214125939Y-123600198D01*
X214125939Y-123600198D02*
X214054511Y-123743055D01*
X214054511Y-123743055D02*
X213983082Y-123814484D01*
X213983082Y-123814484D02*
X213840225Y-123885912D01*
X213840225Y-123885912D02*
X213554511Y-123885912D01*
X213554511Y-123885912D02*
X213411653Y-123814484D01*
X215340225Y-123814484D02*
X215197368Y-123885912D01*
X215197368Y-123885912D02*
X214911654Y-123885912D01*
X214911654Y-123885912D02*
X214768796Y-123814484D01*
X214768796Y-123814484D02*
X214697368Y-123671626D01*
X214697368Y-123671626D02*
X214697368Y-123100198D01*
X214697368Y-123100198D02*
X214768796Y-122957341D01*
X214768796Y-122957341D02*
X214911654Y-122885912D01*
X214911654Y-122885912D02*
X215197368Y-122885912D01*
X215197368Y-122885912D02*
X215340225Y-122957341D01*
X215340225Y-122957341D02*
X215411654Y-123100198D01*
X215411654Y-123100198D02*
X215411654Y-123243055D01*
X215411654Y-123243055D02*
X214697368Y-123385912D01*
X216268796Y-123885912D02*
X216125939Y-123814484D01*
X216125939Y-123814484D02*
X216054510Y-123671626D01*
X216054510Y-123671626D02*
X216054510Y-122385912D01*
X217483082Y-123885912D02*
X217483082Y-123100198D01*
X217483082Y-123100198D02*
X217411653Y-122957341D01*
X217411653Y-122957341D02*
X217268796Y-122885912D01*
X217268796Y-122885912D02*
X216983082Y-122885912D01*
X216983082Y-122885912D02*
X216840224Y-122957341D01*
X217483082Y-123814484D02*
X217340224Y-123885912D01*
X217340224Y-123885912D02*
X216983082Y-123885912D01*
X216983082Y-123885912D02*
X216840224Y-123814484D01*
X216840224Y-123814484D02*
X216768796Y-123671626D01*
X216768796Y-123671626D02*
X216768796Y-123528769D01*
X216768796Y-123528769D02*
X216840224Y-123385912D01*
X216840224Y-123385912D02*
X216983082Y-123314484D01*
X216983082Y-123314484D02*
X217340224Y-123314484D01*
X217340224Y-123314484D02*
X217483082Y-123243055D01*
X218197367Y-122885912D02*
X218197367Y-123885912D01*
X218197367Y-123028769D02*
X218268796Y-122957341D01*
X218268796Y-122957341D02*
X218411653Y-122885912D01*
X218411653Y-122885912D02*
X218625939Y-122885912D01*
X218625939Y-122885912D02*
X218768796Y-122957341D01*
X218768796Y-122957341D02*
X218840225Y-123100198D01*
X218840225Y-123100198D02*
X218840225Y-123885912D01*
X220197368Y-123885912D02*
X220197368Y-122385912D01*
X220197368Y-123814484D02*
X220054510Y-123885912D01*
X220054510Y-123885912D02*
X219768796Y-123885912D01*
X219768796Y-123885912D02*
X219625939Y-123814484D01*
X219625939Y-123814484D02*
X219554510Y-123743055D01*
X219554510Y-123743055D02*
X219483082Y-123600198D01*
X219483082Y-123600198D02*
X219483082Y-123171626D01*
X219483082Y-123171626D02*
X219554510Y-123028769D01*
X219554510Y-123028769D02*
X219625939Y-122957341D01*
X219625939Y-122957341D02*
X219768796Y-122885912D01*
X219768796Y-122885912D02*
X220054510Y-122885912D01*
X220054510Y-122885912D02*
X220197368Y-122957341D01*
X200554510Y-124800828D02*
X200554510Y-126015114D01*
X200554510Y-126015114D02*
X200625939Y-126157971D01*
X200625939Y-126157971D02*
X200697368Y-126229400D01*
X200697368Y-126229400D02*
X200840225Y-126300828D01*
X200840225Y-126300828D02*
X201125939Y-126300828D01*
X201125939Y-126300828D02*
X201268796Y-126229400D01*
X201268796Y-126229400D02*
X201340225Y-126157971D01*
X201340225Y-126157971D02*
X201411653Y-126015114D01*
X201411653Y-126015114D02*
X201411653Y-124800828D01*
X202054511Y-125872257D02*
X202768797Y-125872257D01*
X201911654Y-126300828D02*
X202411654Y-124800828D01*
X202411654Y-124800828D02*
X202911654Y-126300828D01*
X203197368Y-124800828D02*
X204054511Y-124800828D01*
X203625939Y-126300828D02*
X203625939Y-124800828D01*
X204554510Y-126157971D02*
X204625939Y-126229400D01*
X204625939Y-126229400D02*
X204554510Y-126300828D01*
X204554510Y-126300828D02*
X204483082Y-126229400D01*
X204483082Y-126229400D02*
X204554510Y-126157971D01*
X204554510Y-126157971D02*
X204554510Y-126300828D01*
X206983082Y-126229400D02*
X206840225Y-126300828D01*
X206840225Y-126300828D02*
X206554511Y-126300828D01*
X206554511Y-126300828D02*
X206411653Y-126229400D01*
X206411653Y-126229400D02*
X206340225Y-126086542D01*
X206340225Y-126086542D02*
X206340225Y-125515114D01*
X206340225Y-125515114D02*
X206411653Y-125372257D01*
X206411653Y-125372257D02*
X206554511Y-125300828D01*
X206554511Y-125300828D02*
X206840225Y-125300828D01*
X206840225Y-125300828D02*
X206983082Y-125372257D01*
X206983082Y-125372257D02*
X207054511Y-125515114D01*
X207054511Y-125515114D02*
X207054511Y-125657971D01*
X207054511Y-125657971D02*
X206340225Y-125800828D01*
X208340225Y-126300828D02*
X208340225Y-124800828D01*
X208340225Y-126229400D02*
X208197367Y-126300828D01*
X208197367Y-126300828D02*
X207911653Y-126300828D01*
X207911653Y-126300828D02*
X207768796Y-126229400D01*
X207768796Y-126229400D02*
X207697367Y-126157971D01*
X207697367Y-126157971D02*
X207625939Y-126015114D01*
X207625939Y-126015114D02*
X207625939Y-125586542D01*
X207625939Y-125586542D02*
X207697367Y-125443685D01*
X207697367Y-125443685D02*
X207768796Y-125372257D01*
X207768796Y-125372257D02*
X207911653Y-125300828D01*
X207911653Y-125300828D02*
X208197367Y-125300828D01*
X208197367Y-125300828D02*
X208340225Y-125372257D01*
X209697368Y-125300828D02*
X209697368Y-126300828D01*
X209054510Y-125300828D02*
X209054510Y-126086542D01*
X209054510Y-126086542D02*
X209125939Y-126229400D01*
X209125939Y-126229400D02*
X209268796Y-126300828D01*
X209268796Y-126300828D02*
X209483082Y-126300828D01*
X209483082Y-126300828D02*
X209625939Y-126229400D01*
X209625939Y-126229400D02*
X209697368Y-126157971D01*
D13*
%TO.P,3V1,1,+_1*%
%TO.N,Net-(3V1-+)*%
X173585000Y-111170000D03*
D14*
%TO.P,3V1,2,-_2*%
%TO.N,Net-(3V1--)*%
X169735000Y-101000000D03*
%TD*%
D15*
%TO.P,Red1,1,K_1*%
%TO.N,Net-(Red1-K)*%
X201235000Y-108730000D03*
D16*
%TO.P,Red1,2,A_2*%
%TO.N,Net-(Red1-A)*%
X201235000Y-111270000D03*
%TD*%
D17*
%TO.P,220\u038F11111,1*%
%TO.N,Net-(3V1--)*%
X170255000Y-83500000D03*
%TO.P,220\u038F11111,2*%
%TO.N,Net-(Red1-K)*%
X200735000Y-83500000D03*
%TD*%
D18*
%TO.P,SW1,1,1_1*%
%TO.N,Net-(3V1-+)*%
X183235000Y-117500000D03*
X183235000Y-111000000D03*
%TO.P,SW1,2,2_2*%
%TO.N,Net-(Red1-A)*%
X187735000Y-117500000D03*
X187735000Y-111000000D03*
%TD*%
%TO.N,Net-(3V1--)*%
D19*
X153000000Y-108000000D02*
X153000000Y-107500000D01*
X153000000Y-107500000D02*
X153520000Y-106980000D01*
X170255000Y-99980000D02*
X170255000Y-83500000D01*
%TO.N,Net-(3V1-+)*%
X166330000Y-118170000D02*
X166500000Y-118000000D01*
X173585000Y-111170000D02*
X183065000Y-111170000D01*
%TO.N,Net-(Red1-K)*%
X184000000Y-115230000D02*
X184500000Y-115730000D01*
X200735000Y-83500000D02*
X200735000Y-108230000D01*
%TO.N,Net-(Red1-A)*%
X193965000Y-111270000D02*
X201235000Y-111270000D01*
X187735000Y-117500000D02*
X193965000Y-111270000D01*
%TD*%
M02*
